<svg width="33" height="32" viewBox="0 0 33 32" fill="none" xmlns="http://www.w3.org/2000/svg">
<g clip-path="url(#clip0_20007_61)">
<path d="M12.4432 23.9199C10.2153 23.9199 8.40283 25.7324 8.40283 27.9603C8.40283 30.1881 10.2153 32.0006 12.4432 32.0006C14.6711 32.0006 16.4836 30.1881 16.4836 27.9603C16.4836 25.7324 14.671 23.9199 12.4432 23.9199ZM12.4432 29.5764C11.5519 29.5764 10.8271 28.8516 10.8271 27.9603C10.8271 27.069 11.5519 26.3442 12.4432 26.3442C13.3341 26.3442 14.0594 27.069 14.0594 27.9603C14.0594 28.8515 13.3346 29.5764 12.4432 29.5764Z" fill="white"/>
<path d="M24.4025 23.9199C22.1746 23.9199 20.3621 25.7324 20.3621 27.9603C20.3621 30.1881 22.1746 32.0006 24.4025 32.0006C26.6303 32.0006 28.4428 30.1881 28.4428 27.9603C28.4428 25.7324 26.6303 23.9199 24.4025 23.9199ZM24.4025 29.5764C23.5112 29.5764 22.7864 28.8516 22.7864 27.9603C22.7864 27.069 23.5112 26.3442 24.4025 26.3442C25.2938 26.3442 26.0186 27.069 26.0186 27.9603C26.0186 28.8515 25.2938 29.5764 24.4025 29.5764Z" fill="white"/>
<path d="M31.4116 7.89211C31.1813 7.60279 30.8324 7.43436 30.4631 7.43436H9.23915L8.13735 1.86594C8.04078 1.37826 7.65616 0.998883 7.16685 0.909196L2.31843 0.0203247C1.65868 -0.1013 1.02837 0.335511 0.907562 0.994071C0.78675 1.65263 1.22269 2.28413 1.88131 2.40494L5.91923 3.14512L9.47634 21.1242C9.58865 21.6919 10.0868 22.1012 10.6653 22.1012H27.6348C28.1992 22.1012 28.6885 21.7121 28.8158 21.1614L31.6441 8.91916C31.7273 8.55917 31.6416 8.18098 31.4116 7.89211ZM26.6707 19.677H11.6608L9.71871 9.85897H28.9386L26.6707 19.677Z" fill="white"/>
</g>
<defs>
<clipPath id="clip0_20007_61">
<rect width="32" height="32" fill="white" transform="translate(0.28125)"/>
</clipPath>
</defs>
</svg>
