<svg width="33" height="33" viewBox="0 0 33 33" fill="none" xmlns="http://www.w3.org/2000/svg">
<path d="M17.7468 7.49219C18.5598 8.63034 18.9968 9.99407 18.9968 11.3928V12.7422C19.4253 12.7422 19.8414 12.599 20.1791 12.3353C20.5168 12.0716 20.7567 11.7027 20.8606 11.287L20.9968 10.7422L21.3663 11.1856C21.9621 11.9005 22.2854 12.8032 22.2789 13.7337C22.2725 14.6643 21.9367 15.5624 21.3311 16.269C21.1041 16.5337 20.9855 16.8744 20.9988 17.2228C21.0122 17.5713 21.1565 17.9018 21.4031 18.1484C21.5407 18.2861 21.7059 18.3932 21.8877 18.4627C22.0696 18.5322 22.2641 18.5625 22.4584 18.5518C22.6528 18.541 22.8427 18.4893 23.0158 18.4002C23.1889 18.311 23.3412 18.1863 23.4628 18.0343L24.4968 16.7422L25.4968 19.2422C25.9503 20.7537 25.986 22.3599 25.6002 23.8901C25.2144 25.4203 24.4215 26.8175 23.3056 27.9334L23.1795 28.0595C21.4619 29.7772 19.1322 30.7422 16.7031 30.7422H15.6828C14.1011 30.7422 12.5464 30.3326 11.17 29.5533C9.79359 28.774 8.64247 27.6516 7.8287 26.2953C6.85428 24.6713 6.40726 22.7851 6.5492 20.8964C6.69114 19.0078 7.41505 17.2096 8.62127 15.7494L12.669 10.8495C13.0679 10.3666 13.3242 9.78213 13.4093 9.16164C13.4943 8.54116 13.4046 7.90926 13.1503 7.33694C12.8276 6.61096 12.7719 5.79427 12.9932 5.03123C13.2144 4.26819 13.6983 3.60794 14.3593 3.16719L16.4968 1.74219V3.59163C16.4968 4.99031 16.9339 6.35404 17.7468 7.49219Z" fill="url(#paint0_linear_20007_99)"/>
<path d="M20.189 27.3304L20.1934 27.326C20.9711 26.5423 21.526 25.5656 21.8009 24.4963C22.0758 23.427 22.0608 22.3038 21.7575 21.2422L20.3029 22.6968C20.1657 22.8341 20.0027 22.943 19.8233 23.0173C19.644 23.0916 19.4517 23.1299 19.2576 23.1299C19.0635 23.1299 18.8712 23.0916 18.6919 23.0173C18.5125 22.943 18.3495 22.8341 18.2123 22.6968C17.9514 22.436 17.7974 22.087 17.7807 21.7185C17.7639 21.35 17.8855 20.9885 18.1217 20.7051C18.608 20.1216 18.9136 19.4089 19.0012 18.6544C19.0887 17.8999 18.9545 17.1363 18.6148 16.4569L16.2575 11.7422L15.895 15.7297C15.8515 16.2079 15.7119 16.6725 15.4845 17.0954C15.2571 17.5184 14.9466 17.891 14.5717 18.1911L12.5109 19.8398C11.9639 20.2774 11.5223 20.8324 11.2188 21.4638C10.9154 22.0952 10.7578 22.7867 10.7578 23.4873V24.0547C10.7578 24.7395 10.9084 25.4158 11.1988 26.036C11.4892 26.6561 11.9125 27.2048 12.4385 27.6431C13.2902 28.3528 14.3665 28.7365 15.475 28.7256L16.9199 28.7113C18.1488 28.699 19.3234 28.2028 20.189 27.3304Z" fill="#FDD04A"/>
<path d="M8 12.2422C7.86739 12.2422 7.74021 12.1895 7.64645 12.0958C7.55268 12.002 7.5 11.8748 7.5 11.7422V10.7422C7.5 10.6096 7.55268 10.4824 7.64645 10.3886C7.74021 10.2949 7.86739 10.2422 8 10.2422C8.13261 10.2422 8.25979 10.2949 8.35355 10.3886C8.44732 10.4824 8.5 10.6096 8.5 10.7422V11.7422C8.5 11.8748 8.44732 12.002 8.35355 12.0958C8.25979 12.1895 8.13261 12.2422 8 12.2422Z" fill="#FE691E"/>
<path d="M9.5 9.74219C9.36739 9.74219 9.24021 9.68951 9.14645 9.59574C9.05268 9.50198 9 9.3748 9 9.24219V8.24219C9 8.10958 9.05268 7.9824 9.14645 7.88864C9.24021 7.79487 9.36739 7.74219 9.5 7.74219C9.63261 7.74219 9.75979 7.79487 9.85355 7.88864C9.94732 7.9824 10 8.10958 10 8.24219V9.24219C10 9.3748 9.94732 9.50198 9.85355 9.59574C9.75979 9.68951 9.63261 9.74219 9.5 9.74219Z" fill="#FF8D54"/>
<path d="M7.5 7.74219C7.36739 7.74219 7.24021 7.68951 7.14645 7.59574C7.05268 7.50198 7 7.3748 7 7.24219V6.24219C7 6.10958 7.05268 5.9824 7.14645 5.88864C7.24021 5.79487 7.36739 5.74219 7.5 5.74219C7.63261 5.74219 7.75979 5.79487 7.85355 5.88864C7.94732 5.9824 8 6.10958 8 6.24219V7.24219C8 7.3748 7.94732 7.50198 7.85355 7.59574C7.75979 7.68951 7.63261 7.74219 7.5 7.74219Z" fill="#FFB895"/>
<path d="M25 13.7422C24.8674 13.7422 24.7402 13.6895 24.6464 13.5958C24.5527 13.502 24.5 13.3748 24.5 13.2422V12.2422C24.5 12.1096 24.5527 11.9824 24.6464 11.8886C24.7402 11.7949 24.8674 11.7422 25 11.7422C25.1326 11.7422 25.2598 11.7949 25.3536 11.8886C25.4473 11.9824 25.5 12.1096 25.5 12.2422V13.2422C25.5 13.3748 25.4473 13.502 25.3536 13.5958C25.2598 13.6895 25.1326 13.7422 25 13.7422Z" fill="#FE691E"/>
<path d="M23.5 10.2422C23.3674 10.2422 23.2402 10.1895 23.1464 10.0957C23.0527 10.002 23 9.8748 23 9.74219V8.74219C23 8.60958 23.0527 8.4824 23.1464 8.38864C23.2402 8.29487 23.3674 8.24219 23.5 8.24219C23.6326 8.24219 23.7598 8.29487 23.8536 8.38864C23.9473 8.4824 24 8.60958 24 8.74219V9.74219C24 9.8748 23.9473 10.002 23.8536 10.0957C23.7598 10.1895 23.6326 10.2422 23.5 10.2422Z" fill="#FF8D54"/>
<path d="M25.5 8.74219C25.3674 8.74219 25.2402 8.68951 25.1464 8.59574C25.0527 8.50198 25 8.3748 25 8.24219V6.74219C25 6.60958 25.0527 6.4824 25.1464 6.38864C25.2402 6.29487 25.3674 6.24219 25.5 6.24219C25.6326 6.24219 25.7598 6.29487 25.8536 6.38864C25.9473 6.4824 26 6.60958 26 6.74219V8.24219C26 8.3748 25.9473 8.50198 25.8536 8.59574C25.7598 8.68951 25.6326 8.74219 25.5 8.74219Z" fill="#FFB895"/>
<defs>
<linearGradient id="paint0_linear_20007_99" x1="16.1944" y1="1.74219" x2="16.1944" y2="30.7422" gradientUnits="userSpaceOnUse">
<stop stop-color="#FF9159"/>
<stop offset="0.6875" stop-color="#FF7631"/>
<stop offset="1" stop-color="#FF6A1F"/>
</linearGradient>
</defs>
</svg>
